<?xml version="1.0" standalone="no"?>
<!DOCTYPE svg PUBLIC "-//W3C//DTD SVG 20010904//EN"
 "http://www.w3.org/TR/2001/REC-SVG-20010904/DTD/svg10.dtd">
<svg version="1.0" xmlns="http://www.w3.org/2000/svg"
 width="512.000000pt" height="512.000000pt" viewBox="0 0 512.000000 512.000000"
 preserveAspectRatio="xMidYMid meet">

<g transform="translate(0.000000,512.000000) scale(0.100000,-0.100000)"
fill="#000000" stroke="none">
<path d="M3570 4566 c-80 -17 -144 -51 -209 -111 -194 -180 -185 -461 24 -722
108 -135 290 -277 414 -324 86 -32 195 -24 281 20 229 117 445 351 507 548 22
71 25 97 21 181 -3 88 -7 106 -38 168 -64 131 -187 222 -333 246 -82 13 -166
0 -255 -42 l-64 -30 -62 30 c-98 48 -182 59 -286 36z m191 -161 c23 -9 58 -27
76 -41 46 -35 90 -40 133 -15 105 60 135 71 196 71 89 0 150 -24 211 -85 65
-66 89 -135 80 -234 -12 -121 -115 -289 -244 -395 -30 -25 -63 -46 -73 -46 -9
0 -42 9 -74 20 -193 66 -321 200 -372 391 -18 68 -24 244 -11 312 9 41 16 44
78 22z"/>
<path d="M1886 4282 c-65 -24 -93 -59 -80 -104 6 -21 20 -38 39 -47 25 -12 34
-12 74 3 48 17 95 21 89 9 -72 -142 -90 -212 -91 -367 l-2 -121 -30 -3 c-31
-3 -207 -46 -237 -57 -15 -6 -13 5 11 77 16 45 43 119 60 162 27 67 30 83 21
106 -11 27 -46 50 -75 50 -46 0 -118 -150 -182 -377 l-28 -101 -55 -30 c-223
-123 -478 -382 -588 -598 -19 -37 -26 -42 -79 -54 -185 -41 -535 -194 -617
-270 -27 -25 -60 -70 -79 -109 -28 -58 -32 -75 -32 -151 0 -127 34 -191 179
-335 173 -171 324 -245 502 -245 52 0 54 -1 69 -36 47 -113 200 -301 319 -391
78 -59 222 -128 311 -149 85 -20 244 -22 343 -5 l74 13 69 -75 c347 -377 869
-570 1425 -529 420 32 699 132 896 320 125 119 187 248 196 404 l5 98 76 41
c102 55 193 123 269 202 70 74 79 107 39 145 -39 37 -72 29 -140 -36 -34 -32
-82 -74 -107 -94 -58 -45 -168 -109 -173 -100 -7 12 -16 58 -27 133 -8 55 -8
101 1 179 12 99 15 107 49 145 46 52 91 117 124 182 29 58 76 212 76 250 0 25
0 25 63 16 34 -4 119 -8 189 -7 124 0 127 0 123 -20 -2 -12 -12 -59 -21 -106
-9 -47 -30 -121 -47 -165 -16 -44 -30 -100 -31 -124 -1 -37 3 -47 26 -64 33
-25 70 -16 99 23 25 34 76 181 99 288 48 220 53 551 10 664 -28 75 -96 150
-168 185 -49 24 -69 28 -142 28 -76 0 -92 -4 -152 -33 -75 -37 -124 -89 -160
-168 -20 -45 -22 -66 -23 -254 -1 -158 -6 -222 -19 -280 -19 -80 -80 -219
-113 -259 l-20 -24 -41 44 -41 44 -1 83 c-1 387 -303 692 -685 692 -115 0
-197 -17 -292 -60 -36 -17 -67 -29 -68 -28 -1 2 -7 26 -14 53 -20 84 -96 225
-168 314 -82 103 -202 201 -316 261 l-85 44 -5 91 c-8 140 -56 252 -167 391
-63 80 -195 192 -260 222 -73 34 -193 41 -264 14z m365 -289 c111 -116 178
-246 179 -345 l0 -26 -51 13 c-47 13 -183 32 -269 38 l-35 2 0 120 c0 88 5
134 18 170 20 57 53 115 65 115 5 0 47 -39 93 -87z m-44 -484 c243 -27 450
-125 609 -290 117 -122 181 -241 203 -379 l10 -61 -45 -55 c-76 -95 -125 -208
-145 -337 -9 -63 -16 -77 -49 -112 -21 -22 -50 -62 -63 -90 -24 -49 -69 -180
-82 -240 -7 -34 -210 -241 -335 -341 -489 -394 -910 -433 -1230 -115 -196 195
-290 430 -290 726 0 326 128 634 367 885 177 187 385 311 626 375 156 42 273
51 424 34z m2672 -552 c61 -41 79 -90 87 -239 l7 -127 -29 -7 c-64 -17 -298
-6 -331 14 -20 13 -21 250 -1 287 53 99 176 132 267 72z m-1230 -142 c222 -53
383 -241 407 -479 l6 -63 -78 -5 c-124 -7 -226 -74 -279 -183 -26 -53 -55
-195 -55 -272 l0 -42 -46 -7 c-104 -15 -294 18 -294 52 0 7 11 42 23 76 46
122 41 224 -16 321 -52 89 -158 154 -266 164 l-58 6 9 41 c5 22 22 69 38 103
112 229 360 346 609 288z m-2958 -222 c-11 -37 -26 -99 -32 -138 l-12 -70
-126 -1 c-141 -1 -217 -16 -314 -66 l-60 -30 7 44 c14 91 69 140 260 226 103
46 287 114 294 108 2 -2 -6 -35 -17 -73z m-57 -440 c7 -82 32 -240 42 -268 6
-15 1 -16 -42 -10 -125 18 -224 74 -344 193 l-75 74 29 23 c55 44 140 64 268
65 l116 0 6 -77z m2463 56 c60 -23 112 -100 113 -167 0 -19 -14 -72 -30 -119
-60 -169 -62 -389 -4 -440 31 -28 64 -29 95 -4 22 17 24 26 21 90 -1 39 1 71
5 71 5 0 33 -7 63 -15 54 -15 242 -22 278 -11 16 6 20 -4 31 -76 19 -129 50
-241 74 -266 30 -32 83 -27 110 10 l21 27 -27 118 c-38 164 -49 293 -37 417 5
56 14 118 20 139 15 50 72 113 117 128 85 28 184 -15 223 -96 20 -42 22 -54
14 -113 -18 -134 -9 -276 26 -422 40 -169 38 -255 -9 -353 -131 -271 -522
-431 -1051 -430 -143 1 -212 6 -304 22 -217 39 -430 122 -601 236 -84 56 -229
181 -265 227 l-21 27 63 29 c145 66 351 211 504 355 45 42 84 74 88 70 3 -3 6
-35 6 -70 0 -94 20 -199 42 -223 25 -27 81 -27 109 1 17 17 20 29 15 67 -15
120 -18 315 -7 394 14 96 72 277 102 319 42 59 143 86 216 58z"/>
<path d="M2176 2949 c-43 -34 -36 -79 21 -140 26 -28 60 -57 75 -65 52 -27
108 8 108 67 0 47 -115 159 -163 159 -8 0 -26 -9 -41 -21z"/>
<path d="M2076 2579 c-32 -25 -35 -71 -6 -114 26 -40 25 -61 -5 -90 -38 -39
-64 -32 -127 33 -45 46 -56 63 -55 90 0 43 -31 75 -74 75 -45 0 -149 -106
-149 -152 0 -43 31 -71 78 -71 32 0 45 -8 90 -53 40 -40 52 -60 52 -83 0 -61
-60 -82 -122 -44 -42 25 -59 25 -92 -1 -54 -43 -24 -119 61 -155 47 -20 137
-18 181 5 61 32 122 111 122 159 0 15 11 22 47 31 86 22 163 121 163 212 0 48
-31 118 -66 149 -41 35 -62 37 -98 9z"/>
<path d="M1312 2079 c-30 -11 -55 -54 -48 -82 3 -13 34 -51 70 -85 72 -70 101
-77 141 -37 40 39 33 69 -36 140 -61 64 -89 78 -127 64z"/>
</g>
</svg>
